{"title":"Five.Star.2014.WEBRip.480p.x264.AAC-VYTO [P2PDL]","uid":12201864,"size":320250964,"categoryP":"video","categoryS":"movies","magnet":"?xt=urn:btih:a5cb0195fe464ededf7077f78a21758c2111b57b&amp;dn=Five.Star.2014.WEBRip.480p.x264.AAC-VYTO+%5BP2PDL%5D&amp;tr=udp%3A%2F%2Ftracker.openbittorrent.com%3A80&amp;tr=udp%3A%2F%2Fopen.demonii.com%3A1337&amp;tr=udp%3A%2F%2Ftracker.coppersurfer.tk%3A6969&amp;tr=udp%3A%2F%2Fexodus.desync.com%3A6969","seeders":1,"leechers":1,"uploader":"ValidusVyto","files":7,"time":1438849207,"description":"____    ____ ____    ____ .___________.  ______   \n     /   /      /   / |           | /  __    \n    /   /      /   /  `---|  |----`|  |  |  | \n        /     _    _/       |  |     |  |  |  | \n       /        |  |         |  |     |  `--'  | \n    __/         |__|         |__|      ______/  \n                                                  \nPresenting Small Encodes with quality for years!\n                                                                                                   \n                                                                                                   \n\nFive.Star.2014.WEBRip.480p.x264.AAC-VYTO\n\n\nGenre: Drama  &lt;a href=&quot;\nhttp://www.imdb.com/title/tt2361602/&quot; rel=&quot;nofollow&quot; target=&quot;_NEW&quot;&gt;\nhttp://www.imdb.com/title/tt2361602/&lt;/a&gt;\n\n\nGeneral\nFormat                         : MPEG-4\nFile size                      : 301 MiB\nDuration                       : 1h 23mn\nOverall bit rate               : 507 Kbps\n\nVideo\nFormat                         : AVC\nBit rate                       : 472 Kbps\nWidth                          : 720 pixels\nHeight                         : 304 pixels\nDisplay aspect ratio           : 2.35:1\nFrame rate mode                : Constant\nFrame rate                     : 23.976 fp\nBit depth                      : 8 bits\nStream size                    : 280 MiB (93%)\nWriting library                : x264 core 146 r2538 121396c\n\nAudio\nFormat                         : AAC\nMaximum bit rate               : 47.0 Kbps\nChannel(s)                     : 2 channels\nChannel positions              : Front: L R\nSampling rate                  : 48.0 KHz\nStream size                    : 19.0 MiB (6%)\nLanguage                       : English\n\nSubtitle                       : Yes\nSource                     \t   : 720p.WEB-DL\t\t\t\n\n\nScreenshots:\n &lt;a href=&quot;\nhttp://ititli.com/6G&quot; rel=&quot;nofollow&quot; target=&quot;_NEW&quot;&gt;\nhttp://ititli.com/6G&lt;/a&gt; &lt;a href=&quot;\nhttp://ititli.com/6H&quot; rel=&quot;nofollow&quot; target=&quot;_NEW&quot;&gt;\nhttp://ititli.com/6H&lt;/a&gt; &lt;a href=&quot;\nhttp://ititli.com/6M&quot; rel=&quot;nofollow&quot; target=&quot;_NEW&quot;&gt;\nhttp://ititli.com/6M&lt;/a&gt; &lt;a href=&quot;\nhttp://ititli.com/6U&quot; rel=&quot;nofollow&quot; target=&quot;_NEW&quot;&gt;\nhttp://ititli.com/6U&lt;/a&gt; &lt;a href=&quot;\nhttp://ititli.com/6h&quot; rel=&quot;nofollow&quot; target=&quot;_NEW&quot;&gt;\nhttp://ititli.com/6h&lt;/a&gt; &lt;a href=&quot;\nhttp://ititli.com/6s&quot; rel=&quot;nofollow&quot; target=&quot;_NEW&quot;&gt;\nhttp://ititli.com/6s&lt;/a&gt; &lt;a href=&quot;\nhttp://ititli.com/6Y&quot; rel=&quot;nofollow&quot; target=&quot;_NEW&quot;&gt;\nhttp://ititli.com/6Y&lt;/a&gt; &lt;a href=&quot;\nhttp://ititli.com/64&quot; rel=&quot;nofollow&quot; target=&quot;_NEW&quot;&gt;\nhttp://ititli.com/64&lt;/a&gt; &lt;a href=&quot;\nhttp://ititli.com/6K&quot; rel=&quot;nofollow&quot; target=&quot;_NEW&quot;&gt;\nhttp://ititli.com/6K&lt;/a&gt; &lt;a href=&quot;\nhttp://ititli.com/6V&quot; rel=&quot;nofollow&quot; target=&quot;_NEW&quot;&gt;\nhttp://ititli.com/6V&lt;/a&gt; &lt;a href=&quot;\nhttp://ititli.com/6t&quot; rel=&quot;nofollow&quot; target=&quot;_NEW&quot;&gt;\nhttp://ititli.com/6t&lt;/a&gt; &lt;a href=&quot;\nhttp://ititli.com/6L&quot; rel=&quot;nofollow&quot; target=&quot;_NEW&quot;&gt;\nhttp://ititli.com/6L&lt;/a&gt;\n\n----------------------------------------------------------------------------------------------------\n\n\nEncoder Notes: Looking For Early Access To Anything You Can Provide DVDScr, R5, DVDR, BluRay, Direct\nAudio, Music Releases and Seedboxes. If You Got anything to offer please contact us.\n\nSupport us by donating BC - 1FgwdzPsd1y25Gea8wP1qni35uGCtmkRCD","torrent":{"xt":"urn:btih:a5cb0195fe464ededf7077f78a21758c2111b57b","amp;dn":"Five.Star.2014.WEBRip.480p.x264.AAC-VYTO+%5BP2PDL%5D","amp;tr":["udp%3A%2F%2Ftracker.openbittorrent.com%3A80","udp%3A%2F%2Fopen.demonii.com%3A1337","udp%3A%2F%2Ftracker.coppersurfer.tk%3A6969","udp%3A%2F%2Fexodus.desync.com%3A6969"],"infoHash":"a5cb0195fe464ededf7077f78a21758c2111b57b","infoHashBuffer":{"type":"Buffer","data":[165,203,1,149,254,70,78,222,223,112,119,247,138,33,117,140,33,17,181,123]},"announce":[],"urlList":[]}}